#!OML:ASF E:\acrobat2\Project_11_07_03\Capture day 1\Session 1\Acrobat.ASF
:FULLY-SPECIFIED
:DEGREES
813
root 9.1247 6.0777 2.07981 95.2333 -4.48975 -80.354
lowerback 11.8694 -4.49031 3.27672
upperback 3.89568 -5.63012 4.84248
thorax -2.35502 -2.93018 3.98994
lowerneck -5.07976 0.496056 -2.45289
upperneck -4.81971 0.778314 18.548
head -0.600866 0.11543 6.03963
rclavicle -8.0309e-014 1.11319e-013
rhumerus -32.6655 11.0011 -93.0228
rradius 90.8684
rwrist 2.9893
rhand -3.88108 -6.92035
rfingers 7.12502
rthumb 21.8682 -35.7046
lclavicle -8.0309e-014 1.11319e-013
lhumerus 14.6529 -6.34799 107.599
lradius 108.273
lwrist 20.777
lhand -9.00217 -10.6275
lfingers 7.12502
lthumb 16.9444 18.6534
rfemur -33.9103 3.34665 9.16882
rtibia 53.9789
rfoot 370.042 -14.8936
rtoes 39.8852
lfemur -21.4254 4.15121 -30.0474
ltibia 9.26593
lfoot 6.21607 2.89345
ltoes -14.9265
814
root 9.12187 6.07862 2.08035 95.1861 -4.51139 -80.2515
lowerback 11.8978 -4.53775 3.23507
upperback 3.88905 -5.69529 4.86612
thorax -2.36804 -2.96337 4.04977
lowerneck -4.87851 0.461679 -2.39811
upperneck -5.01946 0.76078 18.4456
head -0.691535 0.0847632 5.99768
rclavicle -2.18663e-014 -5.88403e-014
rhumerus -32.6171 11.1345 -93.0091
rradius 90.9499
rwrist 3.02654
rhand -3.99564 -6.91572
rfingers 7.12502
rthumb 21.7582 -35.7128
lclavicle -2.18663e-014 -5.88403e-014
lhumerus 14.6551 -6.13082 107.664
lradius 108.267
lwrist 20.7715
lhand -9.09556 -10.5646
lfingers 7.12502
lthumb 16.8544 18.724
rfemur -33.9514 3.4955 9.1144
rtibia 53.8238
rfoot 370.02 -14.9856
rtoes 39.6551
lfemur -21.3761 4.21111 -30.129
ltibia 9.2947
lfoot 6.30049 2.82064
ltoes -14.6396
815
root 9.11898 6.07974 2.08083 95.1407 -4.56607 -80.1493
lowerback 11.9171 -4.58097 3.1596
upperback 3.88906 -5.75946 4.88323
thorax -2.36664 -2.99596 4.11997
lowerneck -4.7631 0.428893 -2.40554
upperneck -5.14968 0.737332 18.3671
head -0.74673 0.0612727 5.97415
rclavicle -3.10104e-014 9.38264e-014
rhumerus -32.5522 11.2539 -92.9907
rradius 91.0138
rwrist 3.08999
rhand -4.07016 -6.93603
rfingers 7.12502
rthumb 21.6866 -35.7414
lclavicle -3.10104e-014 9.38264e-014
lhumerus 14.6732 -5.91766 107.74
lradius 108.277
lwrist 20.7928
lhand -9.20579 -10.4786
lfingers 7.12502
lthumb 16.7483 18.8189
rfemur -33.9939 3.66296 9.01729
rtibia 53.6671
rfoot 369.973 -15.1039
rtoes 39.5454
lfemur -21.3238 4.29332 -30.2648
ltibia 9.32924
lfoot 6.38276 2.73211
ltoes -14.0157
816
root 9.11628 6.08103 2.08097 95.1074 -4.63174 -80.04
lowerback 11.9145 -4.6224 3.07911
upperback 3.89509 -5.82355 4.89675
thorax -2.34667 -3.02851 4.1866
lowerneck -4.74231 0.400333 -2.45802
upperneck -5.20014 0.70864 18.3183
head -0.761995 0.0455297 5.96771
rclavicle 6.32135e-014 -1.38354e-013
rhumerus -32.4721 11.3543 -92.9711
rradius 91.0641
rwrist 3.16159
rhand -4.09819 -6.9753
rfingers 7.12502
rthumb 21.6597 -35.7838
lclavicle 6.32135e-014 -1.38354e-013
lhumerus 14.7088 -5.71777 107.82
lradius 108.3
lwrist 20.8605
lhand -9.33894 -10.3716
lfingers 7.12502
lthumb 16.6202 18.9368
rfemur -34.0538 3.83618 8.90232
rtibia 53.5185
rfoot 369.898 -15.2348
rtoes 39.5357
lfemur -21.2848 4.37035 -30.4163
ltibia 9.36882
lfoot 6.45 2.65059
ltoes -13.1129
817
root 9.11335 6.08221 2.08096 95.0799 -4.69684 -79.9312
lowerback 11.8928 -4.66057 3.00813
upperback 3.90818 -5.88394 4.90652
thorax -2.3103 -3.05928 4.24112
lowerneck -4.77898 0.376974 -2.52239
upperneck -5.19339 0.678175 18.2984
head -0.750556 0.0348489 5.97237
rclavicle -6.71892e-014 1.28812e-013
rhumerus -32.3889 11.4398 -92.9531
rradius 91.106
rwrist 3.2198
rhand -4.10277 -7.01799
rfingers 7.12502
rthumb 21.6553 -35.827
lclavicle -6.71892e-014 1.28812e-013
lhumerus 14.7562 -5.5334 107.903
lradius 108.328
lwrist 20.9873
lhand -9.50613 -10.2623
lfingers 7.12502
lthumb 16.4592 19.0595
rfemur -34.1228 4.00963 8.78814
rtibia 53.3827
rfoot 369.812 -15.3644
rtoes 39.5591
lfemur -21.2464 4.43054 -30.5562
ltibia 9.39521
lfoot 6.50462 2.593
ltoes -12.146
818
root 9.11009 6.08327 2.08093 95.0562 -4.75902 -79.8225
lowerback 11.8622 -4.69655 2.94352
upperback 3.92145 -5.94123 4.91558
thorax -2.26958 -3.08851 4.28998
lowerneck -4.81697 0.357671 -2.57038
upperneck -5.17497 0.65067 18.2837
head -0.735808 0.0257875 5.9758
rclavicle -1.61016e-014 9.54166e-015
rhumerus -32.3201 11.5221 -92.9363
rradius 91.1373
rwrist 3.26329
rhand -4.10987 -7.035
rfingers 7.12502
rthumb 21.6485 -35.8448
lclavicle -1.61016e-014 9.54166e-015
lhumerus 14.8028 -5.35567 107.989
lradius 108.358
lwrist 21.1697
lhand -9.71231 -10.1741
lfingers 7.12502
lthumb 16.2607 19.164
rfemur -34.2002 4.16862 8.68128
rtibia 53.2694
rfoot 369.728 -15.4817
rtoes 39.5641
lfemur -21.2044 4.46779 -30.6766
ltibia 9.40023
lfoot 6.55798 2.56345
ltoes -11.2046
819
root 9.10641 6.08414 2.08095 95.0244 -4.81677 -79.7148
lowerback 11.8424 -4.7294 2.8837
upperback 3.93087 -5.99282 4.92331
thorax -2.23953 -3.11476 4.33531
lowerneck -4.83548 0.340848 -2.60231
upperneck -5.16219 0.627056 18.2688
head -0.72645 0.0169354 5.97634
rclavicle -6.77856e-014 7.31528e-014
rhumerus -32.2773 11.6044 -92.9209
rradius 91.1528
rwrist 3.2975
rhand -4.13378 -7.01961
rfingers 7.12502
rthumb 21.6255 -35.832
lclavicle -6.77856e-014 7.31528e-014
lhumerus 14.8346 -5.18332 108.081
lradius 108.386
lwrist 21.393
lhand -9.94898 -10.1311
lfingers 7.12502
lthumb 16.0328 19.2255
rfemur -34.2731 4.31543 8.58495
rtibia 53.1838
rfoot 369.639 -15.5773
rtoes 39.5703
lfemur -21.1451 4.4862 -30.7748
ltibia 9.38085
lfoot 6.62452 2.55931
ltoes -10.402
820
root 9.10226 6.08478 2.08126 94.9787 -4.87468 -79.6105
lowerback 11.846 -4.75823 2.82349
upperback 3.93281 -6.03698 4.92657
thorax -2.23076 -3.13694 4.37802
lowerneck -4.79671 0.323161 -2.6033
upperneck -5.17943 0.60588 18.2549
head -0.735815 0.00367737 5.97187
rclavicle 2.98177e-015 -3.65764e-014
rhumerus -32.2671 11.6841 -92.9117
rradius 91.1558
rwrist 3.31794
rhand -4.16976 -7.01304
rfingers 7.12502
rthumb 21.5909 -35.8294
lclavicle 2.98177e-015 -3.65764e-014
lhumerus 14.8412 -5.01932 108.178
lradius 108.406
lwrist 21.6406
lhand -10.217 -10.14
lfingers 7.12502
lthumb 15.7747 19.2372
rfemur -34.3329 4.4579 8.49283
rtibia 53.1252
rfoot 369.551 -15.6577
rtoes 39.5978
lfemur -21.0611 4.49512 -30.8596
ltibia 9.33608
lfoot 6.70613 2.55761
ltoes -10.0147
821
root 9.09784 6.08531 2.08194 94.9227 -4.94254 -79.5097
lowerback 11.8722 -4.78372 2.75372
upperback 3.9268 -6.07556 4.92164
thorax -2.24271 -3.15579 4.41949
lowerneck -4.72102 0.309944 -2.60391
upperneck -5.21466 0.594435 18.2637
head -0.75762 -0.00817139 5.97463
rclavicle -5.70512e-014 4.29375e-014
rhumerus -32.2809 11.7555 -92.9139
rradius 91.1453
rwrist 3.32937
rhand -4.2008 -7.03296
rfingers 7.12502
rthumb 21.5611 -35.8527
lclavicle -5.70512e-014 4.29375e-014
lhumerus 14.8254 -4.86603 108.276
lradius 108.426
lwrist 21.8879
lhand -10.533 -10.1556
lfingers 7.12502
lthumb 15.4704 19.2454
rfemur -34.383 4.59771 8.39254
rtibia 53.0856
rfoot 369.483 -15.7184
rtoes 39.6489
lfemur -20.9667 4.52378 -30.9602
ltibia 9.29531
lfoot 6.78471 2.52361
ltoes -9.83656
822
root 9.09341 6.0858 2.08292 94.8609 -5.02899 -79.414
lowerback 11.9154 -4.80357 2.66799
upperback 3.91623 -6.10671 4.9032
thorax -2.26899 -3.17027 4.45668
lowerneck -4.63246 0.297149 -2.58618
upperneck -5.25443 0.583403 18.2736
head -0.782992 -0.0213192 5.97458
rclavicle -7.13637e-014 4.92986e-014
rhumerus -32.3073 11.7993 -92.9308
rradius 91.1179
rwrist 3.35366
rhand -4.21463 -7.06718
rfingers 7.12502
rthumb 21.5478 -35.8885
lclavicle -7.13637e-014 4.92986e-014
lhumerus 14.7936 -4.73686 108.366
lradius 108.457
lwrist 22.122
lhand -10.9154 -10.1243
lfingers 7.12502
lthumb 15.1019 19.3047
rfemur -34.4292 4.73878 8.27378
rtibia 53.0563
rfoot 369.446 -15.7531
rtoes 39.7005
lfemur -20.8724 4.56999 -31.0884
ltibia 9.26934
lfoot 6.84518 2.45148
ltoes -9.93426
